<svg width="119" height="74" viewBox="0 0 119 74" fill="none" xmlns="http://www.w3.org/2000/svg">
<path d="M28.992 54.76V73H23.76L23.136 71.128C20.96 72.696 18.432 73.48 15.552 73.48C11.104 73.48 7.648 71.96 5.184 68.92C2.72 65.88 1.488 61.64 1.488 56.2C1.488 52.712 2.128 49.672 3.408 47.08C4.688 44.456 6.496 42.44 8.832 41.032C11.168 39.624 13.904 38.92 17.04 38.92C19.76 38.92 22.128 39.448 24.144 40.504C26.192 41.528 27.68 42.968 28.608 44.824L24.672 48.28C23.872 47.032 22.816 46.088 21.504 45.448C20.224 44.776 18.752 44.44 17.088 44.44C14.272 44.44 12.112 45.448 10.608 47.464C9.136 49.48 8.4 52.392 8.4 56.2C8.4 60.2 9.088 63.24 10.464 65.32C11.84 67.368 13.84 68.392 16.464 68.392C18.576 68.392 20.48 67.88 22.176 66.856V59.656H14.88V54.76H28.992ZM45.2314 73.48C41.3594 73.48 38.3354 72.376 36.1594 70.168C33.9834 67.96 32.8954 64.904 32.8954 61C32.8954 57.096 33.9834 54.04 36.1594 51.832C38.3354 49.624 41.3594 48.52 45.2314 48.52C49.1034 48.52 52.1274 49.624 54.3034 51.832C56.5114 54.04 57.6154 57.096 57.6154 61C57.6154 64.904 56.5114 67.96 54.3034 70.168C52.1274 72.376 49.1034 73.48 45.2314 73.48ZM45.2314 68.92C47.1834 68.92 48.7194 68.216 49.8394 66.808C50.9594 65.4 51.5194 63.464 51.5194 61C51.5194 58.536 50.9594 56.6 49.8394 55.192C48.7194 53.784 47.1834 53.08 45.2314 53.08C43.2794 53.08 41.7434 53.784 40.6234 55.192C39.5354 56.6 38.9914 58.536 38.9914 61C38.9914 63.464 39.5354 65.4 40.6234 66.808C41.7434 68.216 43.2794 68.92 45.2314 68.92ZM68.8043 73.48C67.2363 73.48 65.8283 73.16 64.5803 72.52C63.3323 71.848 62.3563 70.936 61.6523 69.784C60.9483 68.6 60.5963 67.288 60.5963 65.848C60.5963 63.384 61.5723 61.496 63.5243 60.184C65.4763 58.872 68.2603 58.216 71.8763 58.216H75.6203V57.208C75.6203 55.928 75.2363 54.952 74.4683 54.28C73.7323 53.576 72.6763 53.224 71.3003 53.224C69.8603 53.224 68.4843 53.48 67.1723 53.992C65.8603 54.504 64.7883 55.208 63.9563 56.104L61.2683 52.552C62.5803 51.304 64.1323 50.328 65.9243 49.624C67.7163 48.888 69.5723 48.52 71.4922 48.52C74.6923 48.52 77.2043 49.272 79.0283 50.776C80.8523 52.28 81.7643 54.36 81.7643 57.016V67.96C81.7643 68.696 81.8123 69.56 81.9083 70.552C82.0363 71.544 82.1803 72.36 82.3403 73H76.9163C76.7243 72.584 76.5803 72.184 76.4843 71.8C76.3883 71.384 76.3083 70.824 76.2443 70.12H76.1483C74.3243 72.36 71.8763 73.48 68.8043 73.48ZM70.2923 68.872C71.8283 68.872 73.0923 68.488 74.0843 67.72C75.1083 66.92 75.6203 65.912 75.6203 64.696V62.296H71.6843C70.0523 62.296 68.7883 62.6 67.8923 63.208C67.0283 63.816 66.5963 64.696 66.5963 65.848C66.5963 66.808 66.9163 67.56 67.5563 68.104C68.2283 68.616 69.1403 68.872 70.2923 68.872ZM93.5865 73.48C91.5385 73.48 89.9705 72.936 88.8825 71.848C87.8265 70.728 87.2985 69.128 87.2985 67.048V37.384H93.3945V67.144C93.3945 67.848 93.5705 68.376 93.9225 68.728C94.3065 69.048 94.8665 69.208 95.6025 69.208C96.3385 69.208 97.2505 69 98.3385 68.584L99.2505 71.848C97.8105 72.936 95.9225 73.48 93.5865 73.48ZM108.191 73.48C106.111 73.48 104.271 73.064 102.671 72.232C101.103 71.4 99.9985 70.296 99.3585 68.92L103.151 66.28C103.727 67.08 104.463 67.72 105.359 68.2C106.255 68.68 107.167 68.92 108.095 68.92C109.183 68.92 110.079 68.648 110.783 68.104C111.487 67.528 111.839 66.824 111.839 65.992C111.839 65.32 111.583 64.792 111.071 64.408C110.559 63.992 109.471 63.464 107.807 62.824C104.895 61.704 102.847 60.568 101.663 59.416C100.479 58.264 99.8865 56.84 99.8865 55.144C99.8865 53.16 100.687 51.56 102.287 50.344C103.919 49.128 106.079 48.52 108.767 48.52C110.559 48.52 112.175 48.872 113.615 49.576C115.055 50.248 116.223 51.224 117.119 52.504L113.567 55.144C112.447 53.768 110.927 53.08 109.007 53.08C108.047 53.08 107.295 53.256 106.751 53.608C106.239 53.928 105.983 54.408 105.983 55.048C105.983 55.496 106.095 55.864 106.319 56.152C106.543 56.44 106.975 56.744 107.615 57.064C108.255 57.384 109.279 57.816 110.687 58.36C112.575 59.096 114.031 59.816 115.055 60.52C116.111 61.192 116.847 61.944 117.263 62.776C117.711 63.576 117.935 64.552 117.935 65.704C117.935 67.24 117.519 68.6 116.687 69.784C115.887 70.936 114.751 71.848 113.279 72.52C111.807 73.16 110.111 73.48 108.191 73.48Z" fill="white"/>
<rect x="0.5" y="1.5" width="15" height="15" rx="3.5" fill="url(#paint0_linear_75_128)" stroke="#166534"/>
<rect x="20.5" y="1.5" width="16" height="15" rx="3.5" fill="url(#paint1_linear_75_128)" stroke="#166534"/>
<rect x="41.5" y="1.5" width="15" height="15" rx="3.5" fill="url(#paint2_linear_75_128)" stroke="#166534"/>
<rect x="62.0517" y="1.36206" width="15.4138" height="15.4138" rx="3.5" fill="url(#paint3_linear_75_128)" stroke="#166534"/>
<rect x="82.5" y="1.5" width="16" height="15" rx="3.5" fill="url(#paint4_linear_75_128)" stroke="#166534"/>
<rect x="103.086" y="1.36206" width="15.4138" height="15.4138" rx="3.5" fill="url(#paint5_linear_75_128)" stroke="#166534"/>
<defs>
<linearGradient id="paint0_linear_75_128" x1="8" y1="1" x2="8" y2="17" gradientUnits="userSpaceOnUse">
<stop stop-color="#11EF34"/>
<stop offset="1" stop-color="#0B7E55"/>
</linearGradient>
<linearGradient id="paint1_linear_75_128" x1="28.5" y1="1" x2="28.5" y2="17" gradientUnits="userSpaceOnUse">
<stop stop-color="#11EF34"/>
<stop offset="1" stop-color="#0B7E55"/>
</linearGradient>
<linearGradient id="paint2_linear_75_128" x1="49" y1="1" x2="49" y2="17" gradientUnits="userSpaceOnUse">
<stop stop-color="#11EF34"/>
<stop offset="1" stop-color="#0B7E55"/>
</linearGradient>
<linearGradient id="paint3_linear_75_128" x1="69.7586" y1="0.862061" x2="69.7586" y2="17.2759" gradientUnits="userSpaceOnUse">
<stop stop-color="#11EF34"/>
<stop offset="1" stop-color="#0B7E55"/>
</linearGradient>
<linearGradient id="paint4_linear_75_128" x1="90.5" y1="1" x2="90.5" y2="17" gradientUnits="userSpaceOnUse">
<stop stop-color="#11EF34"/>
<stop offset="1" stop-color="#0B7E55"/>
</linearGradient>
<linearGradient id="paint5_linear_75_128" x1="110.793" y1="0.862061" x2="110.793" y2="17.2759" gradientUnits="userSpaceOnUse">
<stop stop-color="#11EF34"/>
<stop offset="1" stop-color="#0B7E55"/>
</linearGradient>
</defs>
</svg>
